<?xml version="1.0" encoding="UTF-8"?>
<svg id="_Слой_1" data-name="Слой 1" xmlns="http://www.w3.org/2000/svg" xmlns:xlink="http://www.w3.org/1999/xlink" viewBox="0 0 512 512">
  <defs>
    <style>
      .cls-1 {
        fill: url(#_Безымянный_градиент_58);
      }

      .cls-2 {
        fill: url(#_Безымянный_градиент_44);
      }

      .cls-3 {
        fill: url(#_Безымянный_градиент_112);
      }

      .cls-4 {
        fill: url(#_Безымянный_градиент_59);
      }

      .cls-5 {
        fill: url(#_Безымянный_градиент_84);
      }

      .cls-6 {
        fill: url(#_Безымянный_градиент_57);
      }

      .cls-7 {
        fill: url(#_Безымянный_градиент_91-2);
      }

      .cls-8 {
        fill: url(#_Безымянный_градиент_55);
      }

      .cls-9 {
        fill: url(#_Безымянный_градиент_91);
      }
    </style>
    <linearGradient id="_Безымянный_градиент_91" data-name="Безымянный градиент 91" x1="24.87" y1="271.34" x2="202.39" y2="373.83" gradientUnits="userSpaceOnUse">
      <stop offset="0" stop-color="#25c3e8"/>
      <stop offset=".64" stop-color="#25c1e8"/>
      <stop offset=".86" stop-color="#25bae8"/>
      <stop offset=".99" stop-color="#25b2e8"/>
    </linearGradient>
    <linearGradient id="_Безымянный_градиент_112" data-name="Безымянный градиент 112" x1="73.54" y1="157.47" x2="190.28" y2="274.21" gradientUnits="userSpaceOnUse">
      <stop offset="0" stop-color="#25c3e8"/>
      <stop offset=".26" stop-color="#25c0e8"/>
      <stop offset=".42" stop-color="#28b8e8"/>
      <stop offset=".55" stop-color="#2ca9e8"/>
      <stop offset=".66" stop-color="#3395e8"/>
      <stop offset=".77" stop-color="#3b7be8"/>
      <stop offset=".87" stop-color="#455ae8"/>
      <stop offset=".96" stop-color="#5135e8"/>
      <stop offset=".99" stop-color="#5625e8"/>
    </linearGradient>
    <linearGradient id="_Безымянный_градиент_91-2" data-name="Безымянный градиент 91" x1="158.01" y1="318.67" x2="73.75" y2="270.02" xlink:href="#_Безымянный_градиент_91"/>
    <linearGradient id="_Безымянный_градиент_84" data-name="Безымянный градиент 84" x1="47.92" y1="315.31" x2="125.2" y2="181.46" gradientUnits="userSpaceOnUse">
      <stop offset="0" stop-color="#25c3e8"/>
      <stop offset=".85" stop-color="#25c3e8"/>
      <stop offset=".99" stop-color="#25c3e8"/>
    </linearGradient>
    <linearGradient id="_Безымянный_градиент_58" data-name="Безымянный градиент 58" x1="309.61" y1="138.17" x2="487.13" y2="240.66" gradientUnits="userSpaceOnUse">
      <stop offset="0" stop-color="#5625e8"/>
      <stop offset=".66" stop-color="#3828ee"/>
      <stop offset="1" stop-color="#272bf2"/>
    </linearGradient>
    <linearGradient id="_Безымянный_градиент_55" data-name="Безымянный градиент 55" x1="286.25" y1="277.09" x2="505.92" y2="350.88" gradientUnits="userSpaceOnUse">
      <stop offset="0" stop-color="#5625e8"/>
      <stop offset=".1" stop-color="#4d26e9"/>
      <stop offset=".41" stop-color="#3728ee"/>
      <stop offset=".71" stop-color="#2b2af1"/>
      <stop offset="1" stop-color="#272bf2"/>
    </linearGradient>
    <linearGradient id="_Безымянный_градиент_44" data-name="Безымянный градиент 44" x1="168.25" y1="341.4" x2="382.54" y2="132.84" gradientUnits="userSpaceOnUse">
      <stop offset="0" stop-color="#25c3e8"/>
      <stop offset=".11" stop-color="#25bfe8"/>
      <stop offset=".19" stop-color="#25b6e8"/>
      <stop offset=".26" stop-color="#25a5e9"/>
      <stop offset=".33" stop-color="#258eeb"/>
      <stop offset=".39" stop-color="#2671ed"/>
      <stop offset=".45" stop-color="#264def"/>
      <stop offset=".5" stop-color="#272bf2"/>
      <stop offset=".59" stop-color="#2d2af0"/>
      <stop offset=".71" stop-color="#3f27ec"/>
      <stop offset=".82" stop-color="#5625e8"/>
    </linearGradient>
    <linearGradient id="_Безымянный_градиент_57" data-name="Безымянный градиент 57" x1="338.1" y1="256" x2="488.88" y2="256" gradientUnits="userSpaceOnUse">
      <stop offset="0" stop-color="#5625e8"/>
      <stop offset=".32" stop-color="#5225e8"/>
      <stop offset=".59" stop-color="#4826ea"/>
      <stop offset=".83" stop-color="#3728ee"/>
      <stop offset="1" stop-color="#272bf2"/>
    </linearGradient>
    <linearGradient id="_Безымянный_градиент_59" data-name="Безымянный градиент 59" x1="438.25" y1="241.98" x2="353.99" y2="193.33" gradientUnits="userSpaceOnUse">
      <stop offset="0" stop-color="#5625e8"/>
      <stop offset=".46" stop-color="#4227ec"/>
      <stop offset="1" stop-color="#272bf2"/>
    </linearGradient>
  </defs>
  <path class="cls-9" d="M107.72,334.26h0c-.42-.42-.82-.86-1.23-1.29-21.95,1.9-44.56-5.53-61.35-22.33h0c-10.9-10.9-17.84-24.25-20.86-38.27,3.41,24.06,14.36,47.25,32.86,65.75h0c45.35,45.35,118.89,45.35,164.24,0l3.86-3.86c-32.45,32.45-85.07,32.45-117.52,0Z"/>
  <path class="cls-3" d="M221.38,173.88c-45.35-45.35-118.89-45.35-164.24,0h0c-18.5,18.5-29.45,41.7-32.86,65.75,3.03-14.02,9.97-27.37,20.86-38.27h0c27.77-27.77,71.41-29.96,101.71-6.62,2.62,2.02,5.16,4.21,7.56,6.62l19.49,19.49,34.87,34.87,19.22-19.22,8.5-8.5,19.5-19.5-34.62-34.62Z"/>
  <path class="cls-7" d="M103.61,291.15h0c-14.64-14.64-18.23-36.14-10.79-54.15-16.13,30.83-11.56,69.65,13.67,95.97,17.48-1.52,34.54-8.95,47.92-22.33l19.49-19.49c-19.41,19.41-50.88,19.41-70.29,0Z"/>
  <path class="cls-5" d="M103.61,220.85h0c.65-.65,1.31-1.27,1.99-1.88,19.52-17.51,49.64-16.74,68.41,2.02l-19.59-19.64c-2.4-2.4-4.94-4.6-7.56-6.62-30.3-23.35-73.94-21.15-101.71,6.62h0c-10.9,10.9-17.84,24.25-20.86,38.27-1.54,10.85-1.54,21.88,0,32.74,3.03,14.02,9.97,27.37,20.86,38.27h0c16.8,16.8,39.4,24.23,61.35,22.33-25.23-26.32-29.8-65.14-13.67-95.97,2.43-5.87,6.02-11.37,10.79-16.14Z"/>
  <path class="cls-1" d="M404.28,177.74h0c.42,.42,.82,.86,1.23,1.29,21.95-1.9,44.56,5.53,61.36,22.33h0c10.9,10.9,17.84,24.25,20.87,38.27-3.41-24.06-14.36-47.25-32.86-65.76h0c-45.36-45.36-118.89-45.36-164.25,0l-3.86,3.86c32.45-32.45,85.07-32.45,117.52,0Z"/>
  <path class="cls-8" d="M466.86,310.64h0c-27.77,27.77-71.41,29.96-101.71,6.62-2.62-2.02-5.16-4.21-7.56-6.62l-19.49-19.49-34.87-34.87-19.23,19.23-8.5,8.5-19.5,19.5,34.62,34.62c45.36,45.36,118.89,45.36,164.25,0h0c18.5-18.5,29.46-41.7,32.86-65.76-3.03,14.02-9.97,27.37-20.87,38.27Z"/>
  <path class="cls-2" d="M404.28,177.74h0c-32.45-32.45-85.07-32.45-117.52,0l-30.76,30.76-19.5,19.5-8.5,8.5-19.22,19.22,.28,.28-.28,.28-34.87,34.87-19.49,19.49c-13.38,13.38-30.44,20.81-47.92,22.33,.41,.43,.81,.87,1.23,1.29h0c32.45,32.45,85.07,32.45,117.52,0l30.76-30.76,19.5-19.5,8.5-8.5,19.23-19.23-.27-.27,.27-.27,34.87-34.87s0,0,0,0l19.49-19.49c13.38-13.38,30.44-20.81,47.92-22.33-.41-.43-.81-.87-1.23-1.29Z"/>
  <path class="cls-6" d="M487.73,239.63c-3.03-14.02-9.97-27.37-20.87-38.27h0c-16.8-16.8-39.41-24.23-61.36-22.33,25.23,26.32,29.8,65.14,13.67,95.97-2.43,5.87-6.02,11.37-10.79,16.14h0c-.65,.65-1.31,1.27-1.99,1.88-19.52,17.51-49.55,16.89-68.31-1.88l19.49,19.49c2.4,2.4,4.94,4.6,7.56,6.62,30.3,23.35,73.94,21.15,101.71-6.62h0c10.9-10.9,17.84-24.25,20.87-38.27,1.54-10.85,1.54-21.88,0-32.74Z"/>
  <path class="cls-4" d="M408.39,220.85h0c14.64,14.64,18.23,36.14,10.79,54.15,16.13-30.83,11.56-69.65-13.67-95.97-17.48,1.52-34.54,8.95-47.92,22.33l-19.49,19.49c19.41-19.41,50.88-19.41,70.29,0Z"/>
</svg>